<?xml version="1.0" standalone="no"?>
<!DOCTYPE svg PUBLIC "-//W3C//DTD SVG 20010904//EN"
 "http://www.w3.org/TR/2001/REC-SVG-20010904/DTD/svg10.dtd">
<svg version="1.0" xmlns="http://www.w3.org/2000/svg"
 width="487.000000pt" height="512.000000pt" viewBox="0 0 487.000000 512.000000"
 preserveAspectRatio="xMidYMid meet">
<metadata>
Created by potrace 1.16, written by Peter Selinger 2001-2019
</metadata>
<g transform="translate(0.000000,512.000000) scale(0.100000,-0.100000)"
fill="#000000" stroke="none">
<path d="M1456 4084 c-315 -62 -579 -264 -716 -548 -27 -56 -59 -137 -71 -181
-23 -79 -23 -86 -27 -880 -2 -579 0 -821 8 -874 56 -353 324 -672 662 -787
158 -53 169 -54 1000 -54 823 0 829 0 983 52 308 102 564 379 652 703 l27 100
4 755 c2 536 0 782 -8 850 -28 223 -119 409 -288 584 -139 145 -304 234 -511
276 -95 19 -133 20 -873 19 -610 -1 -787 -4 -842 -15z m1645 -824 c49 -27 49
-30 49 -632 0 -587 -2 -615 -44 -697 -25 -48 -94 -112 -151 -141 -43 -21 -64
-25 -145 -25 -81 0 -103 4 -145 24 -67 33 -131 100 -163 169 -38 81 -38 193 0
273 32 69 90 129 160 166 47 25 64 28 148 28 72 0 103 -4 128 -18 l32 -18 0
347 0 346 -27 -6 c-16 -3 -192 -33 -393 -66 -201 -33 -375 -62 -387 -65 l-23
-5 0 -540 c0 -519 -1 -541 -21 -594 -26 -72 -93 -145 -163 -179 -234 -115
-504 68 -484 326 10 121 82 226 193 278 51 25 72 29 140 29 57 0 92 -6 123
-20 l42 -19 0 410 0 411 28 28 c21 21 44 30 97 39 39 7 266 45 505 85 477 81
473 80 501 66z"/>
<path d="M2756 2250 c-62 -19 -108 -86 -108 -155 0 -136 151 -211 260 -129 43
33 62 73 62 129 0 57 -19 96 -65 131 -39 29 -101 39 -149 24z"/>
<path d="M1750 2083 c-71 -29 -116 -106 -105 -180 13 -87 106 -155 188 -138
86 19 144 97 134 182 -9 81 -66 135 -149 139 -29 2 -60 1 -68 -3z"/>
</g>
</svg>
